# xmcd CD database file
#
# Track frame offsets:
#	150
#	36115
#	64047
#	101332
#	129997
#	155410
#	182540
#
# Disc length: 2953 seconds
#
# Revision: 0
# Processed by: cddbd v1.4PL0 Copyright (c) Steve Scherf et al.
# Submitted via: CDex 1.50beta10
#
DISCID=4e0b8707
DTITLE=BENNY GOLSON FUNKY QUINTET - THAT'S FUNKY
DYEAR=2003
DGENRE=Jazz
TTITLE0=MOANIN'
TTITLE1=THE SIDEWINDER
TTITLE2=MISSISSIPPI WINDOWS
TTITLE3=WORK SONG
TTITLE4=MACK THE KNIFE(Funky Arrange)
TTITLE5=MORITAT(Modern Be-Bop Arrange)
TTITLE6=BLUES MARCH
EXTD=YEAR: 2003
EXTT0=
EXTT1=
EXTT2=
EXTT3=
EXTT4=
EXTT5=
EXTT6=
PLAYORDER=
